<svg xmlns="http://www.w3.org/2000/svg" viewBox="0 0 100 100" fill="none" stroke="currentColor" stroke-width="2">
  <!-- Kozmetik Diş Hekimliği - Büyüteç ikonu -->
  <circle cx="40" cy="40" r="25" fill="none" stroke="currentColor" stroke-width="2.5"/>
  <line x1="58" y1="58" x2="75" y2="75" stroke="currentColor" stroke-width="3" stroke-linecap="round"/>
  <!-- İçeride diş -->
  <path d="M35 32 C30 32 28 34 28 38 L28 42 C28 48 30 52 35 52 C40 52 42 48 42 42 L42 38 C42 34 40 32 35 32 Z" fill="none" stroke="currentColor" stroke-width="1.5"/>
  <path d="M40 32 C38 32 37 34 37 38 L37 42 C37 48 38 52 40 52 C42 52 43 48 43 42 L43 38 C43 34 42 32 40 32 Z" fill="none" stroke="currentColor" stroke-width="1.5"/>
</svg>

